# xmcd
#
# Track frame offsets: 
#        150
#        20040
#        33343
#        52651
#        69109
#        87170
#        99758
#        118076
#        134516
#        151787
#
# Disc length: 2322 seconds
#
# Revision: 0
# Processed by: cddbd v1.5.2PL0 Copyright (c) Steve Scherf et al.
# Submitted via: ExactAudioCopy v0.95a5
#
DISCID=6f09100a
DTITLE=Various Artist - Raymond and zijn Jonge Helden
DYEAR=2006
DGENRE=Ballad
TTITLE0=The Germans - Leidse Plein
TTITLE1=The Blackbox Revelation - Ze weet niet wat ze doet
TTITLE2=tomàn - 2 Meisjes
TTITLE3=Balthazar - Gelukkig Zijn
TTITLE4=The Violent Husbands - Meisjes
TTITLE5=Cream and Spices - Bierfeesten
TTITLE6=Kawada - Lied van de zee
TTITLE7=Mira - Foei, foei, foei
TTITLE8=Members of Marvelas - Ik zou liegen als ik de waarheid sprak
TTITLE9=headphone - Brussels by night (remix)
EXTD=
EXTT0=
EXTT1=
EXTT2=
EXTT3=
EXTT4=
EXTT5=
EXTT6=
EXTT7=
EXTT8=
EXTT9=
PLAYORDER=
